<?xml version="1.0" standalone="no"?><!DOCTYPE svg PUBLIC "-//W3C//DTD SVG 1.1//EN" "http://www.w3.org/Graphics/SVG/1.1/DTD/svg11.dtd"><svg t="1683298430316" class="icon" viewBox="0 0 1024 1024" version="1.1" xmlns="http://www.w3.org/2000/svg" p-id="33306" xmlns:xlink="http://www.w3.org/1999/xlink" width="200" height="200"><path d="M758.89639 493.393171c132.938927 0 254.045659-108.225561 254.045659-241.164488 0-132.945171-108.094439-241.170732-241.170732-241.170732-133.070049 0-241.170732 108.094439-241.170732 241.170732 0 133.070049 95.350634 241.170732 228.295805 241.170732z m12.874927-398.823025c86.765268 0 157.533659 70.762146 157.533659 157.527415 0 86.765268-70.76839 157.533659-157.533659 157.533659s-157.527415-70.637268-157.527415-157.408781c0-86.759024 70.762146-157.658537 157.533659-157.658537zM374.371902 23.932878h-270.04878c-51.512195 0-93.265171 41.75922-93.265171 93.271415v270.04878c0 51.512195 41.752976 93.265171 93.265171 93.265171h270.04878c51.512195 0 93.271415-41.752976 93.271415-93.265171V117.073171c0-51.387317-41.75922-93.140293-93.271415-93.140293zM384 387.253073c0 5.332293-4.420683 9.621854-9.628098 9.621854h-270.04878a9.690537 9.690537 0 0 1-9.621854-9.621854V117.073171c0-5.332293 4.420683-9.628098 9.621854-9.628098h270.04878c5.332293 0 9.628098 4.426927 9.628098 9.628098v270.173658z m-9.628098 169.10361h-270.04878c-51.512195 0-93.265171 41.75922-93.265171 93.271415v270.04878c0 51.512195 41.752976 93.265171 93.265171 93.265171h270.04878c51.512195 0 93.271415-41.752976 93.271415-93.265171v-270.04878c0-51.512195-41.75922-93.271415-93.271415-93.271415z m9.628098 363.320195c0 5.332293-4.420683 9.621854-9.628098 9.621854h-270.04878a9.690537 9.690537 0 0 1-9.621854-9.621854v-270.04878c0-5.338537 4.420683-9.628098 9.621854-9.628098h270.04878c5.332293 0 9.628098 4.420683 9.628098 9.628098v270.04878z m522.926829-363.320195h-270.173658c-51.512195 0-93.271415 41.75922-93.271415 93.271415v270.04878c0 51.512195 41.752976 93.265171 93.265171 93.265171h270.04878c51.512195 0 93.271415-41.752976 93.271415-93.265171v-270.04878c0-51.512195-41.75922-93.271415-93.140293-93.271415z m9.628098 363.320195c0 5.332293-4.426927 9.621854-9.628098 9.621854h-270.173658a9.690537 9.690537 0 0 1-9.634342-9.621854v-270.04878c0-5.338537 4.426927-9.628098 9.628098-9.628098h270.04878c5.332293 0 9.628098 4.420683 9.628098 9.628098v270.04878h0.124878z" fill="#ffffff" p-id="33307"></path><path d="M758.89639 499.637073c-134.094049 0-234.539707-108.394146-234.539707-247.40839C524.362927 115.699512 635.254634 4.807805 771.771317 4.807805c136.47922 0 247.414634 110.979122 247.414634 247.414634 0 134.212683-121.543805 247.414634-260.289561 247.414634z m247.801756-247.40839c0-129.542244-105.347122-234.926829-234.926829-234.926829-129.623415 0-234.926829 105.303415-234.926829 234.926829 0 132.327024 95.075902 234.926829 222.051902 234.926829 132.039805 0 247.801756-107.819707 247.801756-234.926829z m-234.926829-163.902439c90.211902 0 163.777561 73.553171 163.777561 163.771317 0 90.211902-73.565659 163.777561-163.777561 163.777561-90.236878 0-163.771317-73.459512-163.771317-163.652683 0-90.230634 73.58439-163.902439 163.777561-163.902439z m0 12.487805c-83.293659 0-151.283512 68.071024-151.283512 151.414634 0 83.293659 67.939902 151.15239 151.289756 151.15239 83.31239 0 151.277268-67.964878 151.277268-151.283512s-67.964878-151.289756-151.283512-151.289756zM473.88722 117.073171v270.173658c0 54.965073-44.550244 99.515317-99.515318 99.515317h-270.04878C49.364293 486.762146 4.814049 442.211902 4.814049 387.253073V117.198049c0-54.958829 44.550244-99.515317 99.509073-99.515317h270.04878c54.946341 0 99.515317 44.531512 99.515318 99.384195zM104.323122 30.17678c-48.059317 0-87.021268 38.961951-87.021268 87.027513v270.04878c0 48.065561 38.961951 87.021268 87.021268 87.021268h270.04878c48.065561 0 87.027512-38.961951 87.027513-87.021268V117.073171c0-47.953171-38.980683-86.89639-87.027513-86.896391h-270.04878zM390.243902 387.253073a15.934439 15.934439 0 0 1-15.872 15.865756h-270.04878a15.934439 15.934439 0 0 1-15.865756-15.865756V117.073171a15.934439 15.934439 0 0 1 15.865756-15.872h270.04878A15.934439 15.934439 0 0 1 390.243902 117.073171v270.173658z m-12.487804 0V117.073171a3.446634 3.446634 0 0 0-3.384196-3.384195h-270.04878a3.446634 3.446634 0 0 0-3.377951 3.384195v270.173658c0 1.816976 1.554732 3.384195 3.377951 3.384195h270.04878c1.810732 0 3.384195-1.554732 3.384196-3.377951z m96.131122 262.368781v270.04878c0 54.965073-44.550244 99.515317-99.515318 99.515317h-270.04878c-54.958829 0-99.509073-44.550244-99.509073-99.509073v-270.04878c0-54.965073 44.550244-99.515317 99.509073-99.515318h270.04878c54.965073 0 99.515317 44.550244 99.515318 99.515318zM104.323122 562.606829c-48.059317 0-87.021268 38.961951-87.021268 87.027512v270.048781c0 48.059317 38.961951 87.021268 87.021268 87.021268h270.04878c48.065561 0 87.027512-38.961951 87.027513-87.021268v-270.048781c0-48.065561-38.961951-87.027512-87.027513-87.027512h-270.04878zM390.243902 919.676878a15.934439 15.934439 0 0 1-15.872 15.865756h-270.04878a15.934439 15.934439 0 0 1-15.865756-15.865756v-270.04878a15.934439 15.934439 0 0 1 15.865756-15.872h270.04878a15.934439 15.934439 0 0 1 15.872 15.872v270.04878z m-12.487804 0v-270.04878a3.446634 3.446634 0 0 0-3.384196-3.384196h-270.04878a3.446634 3.446634 0 0 0-3.377951 3.384196v270.04878c0 1.810732 1.554732 3.377951 3.377951 3.377951h270.04878c1.810732 0 3.384195-1.554732 3.384196-3.377951z m628.554926-270.04878v270.04878c0 54.958829-44.556488 99.509073-99.515317 99.509073h-270.04878c-54.958829 0-99.509073-44.550244-99.509073-99.509073v-270.04878c0-54.965073 44.550244-99.515317 99.509073-99.515318h270.179902c54.852683 0 99.384195 44.57522 99.384195 99.515318z m-369.564097-87.027513c-48.065561 0-87.021268 38.961951-87.021268 87.027513v270.04878c0 48.059317 38.961951 87.021268 87.021268 87.021268h270.04878c48.065561 0 87.027512-38.961951 87.027513-87.021268v-270.04878c0-48.046829-38.94322-87.027512-86.896391-87.027513h-270.173658z m286.051902 350.832391v6.243902a15.934439 15.934439 0 0 1-15.872 15.865756h-270.173658a15.934439 15.934439 0 0 1-15.878244-15.865756v-270.04878a15.934439 15.934439 0 0 1 15.872-15.872h270.04878a15.934439 15.934439 0 0 1 15.872 15.872v263.804878h0.124878z m-12.618927-263.804878a3.446634 3.446634 0 0 0-3.384195-3.384196h-270.04878a3.446634 3.446634 0 0 0-3.384195 3.384196v270.04878c0 1.810732 1.560976 3.377951 3.384195 3.377951h270.179902c1.498537 0 2.840976-1.067707 3.24683-2.478829v-270.947902z" fill="#ffffff" p-id="33308"></path></svg>