<?xml version="1.0" standalone="no"?><!DOCTYPE svg PUBLIC "-//W3C//DTD SVG 1.1//EN" "http://www.w3.org/Graphics/SVG/1.1/DTD/svg11.dtd"><svg t="1683301131815" class="icon" viewBox="0 0 1155 1024" version="1.1" xmlns="http://www.w3.org/2000/svg" p-id="57712" xmlns:xlink="http://www.w3.org/1999/xlink" width="225.5859375" height="200"><path d="M1120.991179 616.342974h-200.33641v-47.261538a89.271795 89.271795 0 0 0-89.639384-88.405333h-227.853129v-72.887795h69.868308a8.086974 8.086974 0 0 0 8.113231-7.876923 8.244513 8.244513 0 0 0-7.036718-7.876923 40.644923 40.644923 0 0 1-33.765744-36.260103h163.18359a34.133333 34.133333 0 0 0 34.290872-33.844513V34.002051A34.133333 34.133333 0 0 0 803.524923 0.210051h-451.610256a34.133333 34.133333 0 0 0-34.317129 33.792v287.927795a34.133333 34.133333 0 0 0 34.317129 33.844513h163.183589a40.776205 40.776205 0 0 1-33.765743 36.260103 8.244513 8.244513 0 0 0-7.062975 7.876923 8.034462 8.034462 0 0 0 8.113231 7.876923h69.894564v72.887795h-227.879384a89.114256 89.114256 0 0 0-89.639385 88.405333v47.261538h-200.33641a34.133333 34.133333 0 0 0-34.317128 33.844513v287.927795a34.133333 34.133333 0 0 0 34.317128 33.844513h163.18359a40.802462 40.802462 0 0 1-33.765744 36.260102 8.218256 8.218256 0 0 0-7.062974 7.876924 8.008205 8.008205 0 0 0 8.11323 7.876923h190.752821a8.060718 8.060718 0 0 0 8.113231-7.876923 8.218256 8.218256 0 0 0-7.036718-7.876924 40.697436 40.697436 0 0 1-33.765744-36.260102h163.18359a34.133333 34.133333 0 0 0 34.264615-33.844513V650.187487a34.133333 34.133333 0 0 0-34.264615-33.844513h-200.33641v-47.261538a38.413128 38.413128 0 0 1 38.623179-38.098051h506.748718a38.413128 38.413128 0 0 1 38.62318 38.098051v47.261538h-200.336411a34.133333 34.133333 0 0 0-34.317128 33.844513v287.927795a34.133333 34.133333 0 0 0 34.317128 33.844513h163.18359a40.802462 40.802462 0 0 1-33.765744 36.260102 8.218256 8.218256 0 0 0-7.062974 7.876924 8.008205 8.008205 0 0 0 8.113231 7.876923h190.75282a8.060718 8.060718 0 0 0 8.113231-7.876923 8.192 8.192 0 0 0-7.036718-7.876924 40.697436 40.697436 0 0 1-33.765743-36.260102h163.183589a34.133333 34.133333 0 0 0 34.290872-33.844513V650.187487a34.133333 34.133333 0 0 0-34.474667-33.844513z" fill="#ffffff" p-id="57713"></path></svg>