<?xml version="1.0" standalone="no"?><!DOCTYPE svg PUBLIC "-//W3C//DTD SVG 1.1//EN" "http://www.w3.org/Graphics/SVG/1.1/DTD/svg11.dtd"><svg t="1683298208586" class="icon" viewBox="0 0 1462 1024" version="1.1" xmlns="http://www.w3.org/2000/svg" p-id="25010" xmlns:xlink="http://www.w3.org/1999/xlink" width="285.546875" height="200"><path d="M719.579429 187.099429a798.646857 798.646857 0 0 0-554.715429 225.865142L53.906286 302.006857C200.557714 159.451429 394.678857 60.342857 608.694857 36.571429c35.620571-3.949714 71.314286-7.899429 110.957714-7.899429 39.570286 0 75.264 3.949714 110.884572 7.899429 225.865143 27.794286 427.885714 130.706286 578.486857 289.206857l-110.957714 114.907428c-146.578286-158.500571-348.672-253.586286-578.413715-253.586285z m0 356.571428c-114.907429 0-221.915429 47.542857-301.129143 122.88L307.492571 551.643429a594.724571 594.724571 0 0 1 412.086858-166.4c174.299429 0 332.8 75.264 439.734857 194.121142l-110.957715 114.834286c-79.213714-95.085714-198.070857-150.528-328.777142-150.528z m-162.450286 257.536a237.933714 237.933714 0 0 1 162.377143-63.414857c79.286857 0 146.651429 39.643429 190.171428 95.085714l-158.427428 162.450286-194.121143-194.121143z" fill="#ffffff" p-id="25011"></path></svg>