<?xml version="1.0" encoding="UTF-8" standalone="no"?>
<svg
   xmlns:dc="http://purl.org/dc/elements/1.1/"
   xmlns:cc="http://creativecommons.org/ns#"
   xmlns:rdf="http://www.w3.org/1999/02/22-rdf-syntax-ns#"
   xmlns:svg="http://www.w3.org/2000/svg"
   xmlns="http://www.w3.org/2000/svg"
   xmlns:sodipodi="http://sodipodi.sourceforge.net/DTD/sodipodi-0.dtd"
   xmlns:inkscape="http://www.inkscape.org/namespaces/inkscape"
   version="1.1"
   viewBox="0 0 22 22"
   id="svg7"
   sodipodi:docname="locked.svg"
   inkscape:version="1.0.2 (e86c870879, 2021-01-15)"
   width="22"
   height="22">
  <metadata
     id="metadata11">
    <rdf:RDF>
      <cc:Work
         rdf:about="">
        <dc:format>image/svg+xml</dc:format>
        <dc:type
           rdf:resource="http://purl.org/dc/dcmitype/StillImage" />
        <dc:title />
      </cc:Work>
    </rdf:RDF>
  </metadata>
  <sodipodi:namedview
     pagecolor="#ffffff"
     bordercolor="#666666"
     borderopacity="1"
     objecttolerance="10"
     gridtolerance="10"
     guidetolerance="10"
     inkscape:pageopacity="0"
     inkscape:pageshadow="2"
     inkscape:window-width="2160"
     inkscape:window-height="1221"
     id="namedview9"
     showgrid="false"
     inkscape:zoom="33.409091"
     inkscape:cx="14.598081"
     inkscape:cy="11"
     inkscape:window-x="0"
     inkscape:window-y="42"
     inkscape:window-maximized="1"
     inkscape:current-layer="svg7"
     inkscape:document-rotation="0" />
  <defs
     id="defs3">
    <style
       id="current-color-scheme"
       type="text/css">.ColorScheme-Text {
        color:#363636;
      }</style>
  </defs>
  <g
     id="g859"
     transform="matrix(0.03515625,0,0,0.03515625,4.25,2)">
    <path
       d="M 336,512 H 48 C 21.546875,512 0,490.47656 0,464 V 240 c 0,-26.47656 21.546875,-48 48,-48 h 288 c 26.45312,0 48,21.52344 48,48 v 224 c 0,26.47656 -21.54688,48 -48,48 z M 48,224 c -8.8125,0 -16,7.16797 -16,16 v 224 c 0,8.83203 7.1875,16 16,16 h 288 c 8.8125,0 16,-7.16797 16,-16 V 240 c 0,-8.83203 -7.1875,-16 -16,-16 z m 0,0"
       id="path2-3"
       style="fill:#363636;fill-opacity:1" />
    <path
       d="m 304,224 c -8.83203,0 -16,-7.16797 -16,-16 V 128 C 288,75.070312 244.92969,32 192,32 139.07031,32 96,75.070312 96,128 v 80 c 0,8.83203 -7.167969,16 -16,16 -8.832031,0 -16,-7.16797 -16,-16 V 128 C 64,57.40625 121.40625,0 192,0 262.59375,0 320,57.40625 320,128 v 80 c 0,8.83203 -7.16797,16 -16,16 z m 0,0"
       id="path4"
       style="fill:#363636;fill-opacity:1" />
  </g>
</svg>
