<?xml version="1.0" encoding="UTF-8" standalone="no"?>
<svg
   xmlns:dc="http://purl.org/dc/elements/1.1/"
   xmlns:cc="http://creativecommons.org/ns#"
   xmlns:rdf="http://www.w3.org/1999/02/22-rdf-syntax-ns#"
   xmlns:svg="http://www.w3.org/2000/svg"
   xmlns="http://www.w3.org/2000/svg"
   xmlns:sodipodi="http://sodipodi.sourceforge.net/DTD/sodipodi-0.dtd"
   xmlns:inkscape="http://www.inkscape.org/namespaces/inkscape"
   width="16"
   height="16"
   version="1.1"
   viewBox="0 0 16 16"
   id="svg7"
   sodipodi:docname="appearance.svg"
   inkscape:version="1.0.2 (e86c870879, 2021-01-15)">
  <metadata
     id="metadata11">
    <rdf:RDF>
      <cc:Work
         rdf:about="">
        <dc:format>image/svg+xml</dc:format>
        <dc:type
           rdf:resource="http://purl.org/dc/dcmitype/StillImage" />
        <dc:title />
      </cc:Work>
    </rdf:RDF>
  </metadata>
  <sodipodi:namedview
     pagecolor="#ffffff"
     bordercolor="#666666"
     borderopacity="1"
     objecttolerance="10"
     gridtolerance="10"
     guidetolerance="10"
     inkscape:pageopacity="0"
     inkscape:pageshadow="2"
     inkscape:window-width="2160"
     inkscape:window-height="1229"
     id="namedview9"
     showgrid="false"
     inkscape:zoom="45.9375"
     inkscape:cx="3.8095238"
     inkscape:cy="8"
     inkscape:window-x="0"
     inkscape:window-y="42"
     inkscape:window-maximized="1"
     inkscape:current-layer="svg7"
     inkscape:document-rotation="0" />
  <defs
     id="defs3">
    <style
       id="current-color-scheme"
       type="text/css">.ColorScheme-Text { color:#363636; }</style>
  </defs>
  <g
     id="g4"
     transform="matrix(0.02996901,0,0,0.02996901,-2.5118761e-5,5.0384294e-6)"
     style="fill:#ffffff;fill-opacity:1">
    <path
       d="m 266.942,337.361 c -24.213,0.001 -48.418,-5.919 -70.49,-17.757 L 37.296,234.234 C 14.217,221.856 -0.071,197.918 0.004,171.763 0.08,145.608 14.507,121.754 37.657,109.508 L 197.214,25.111 c 43.662,-23.094 95.794,-23.094 139.456,0 l 159.557,84.397 c 23.15,12.245 37.577,36.099 37.653,62.255 0.075,26.155 -14.213,50.093 -37.291,62.471 l -159.158,85.37 c -22.065,11.838 -46.281,17.755 -70.489,17.757 z m 0,-287.857 c -17.251,0 -34.501,4.159 -50.226,12.477 L 57.161,146.379 c -9.64,5.099 -15.415,14.635 -15.446,25.506 -0.031,10.871 5.687,20.44 15.298,25.595 l 159.157,85.369 c 31.795,17.054 69.755,17.054 101.549,0 L 476.877,197.48 c 9.611,-5.155 15.329,-14.723 15.298,-25.595 -0.031,-10.872 -5.806,-20.407 -15.446,-25.506 L 317.168,61.981 C 301.443,53.664 284.193,49.504 266.942,49.504 Z m -59.976,-5.958 h 0.01 z m 130.466,464.792 185.452,-99.47 c 10.15,-5.444 13.965,-18.086 8.521,-28.235 -5.444,-10.15 -18.085,-13.965 -28.235,-8.521 l -185.453,99.47 c -31.792,17.054 -69.753,17.054 -101.629,-0.043 L 30.636,373.112 c -10.176,-5.4 -22.799,-1.529 -28.197,8.644 -5.4,10.174 -1.53,22.797 8.644,28.197 l 185.37,98.384 c 22.072,11.839 46.277,17.757 70.49,17.757 24.207,10e-4 48.423,-5.919 70.489,-17.756 z m 0,-93.845 185.452,-99.47 c 10.15,-5.444 13.965,-18.086 8.521,-28.235 -5.444,-10.151 -18.085,-13.964 -28.235,-8.521 l -185.453,99.47 c -31.792,17.055 -69.753,17.053 -101.629,-0.043 L 30.636,279.267 c -10.176,-5.4 -22.799,-1.529 -28.197,8.644 -5.4,10.174 -1.53,22.797 8.644,28.197 l 185.37,98.384 c 22.072,11.839 46.277,17.757 70.49,17.757 24.207,0 48.423,-5.919 70.489,-17.756 z"
       id="path2-7"
       style="fill:#ffffff;fill-opacity:1" />
  </g>
</svg>
