<?xml version="1.0" standalone="no"?><!DOCTYPE svg PUBLIC "-//W3C//DTD SVG 1.1//EN" "http://www.w3.org/Graphics/SVG/1.1/DTD/svg11.dtd"><svg t="1683298235342" class="icon" viewBox="0 0 1024 1024" version="1.1" xmlns="http://www.w3.org/2000/svg" p-id="26088" xmlns:xlink="http://www.w3.org/1999/xlink" width="200" height="200"><path d="M465.6 808.8c-13.6 0-26-6.8-33.2-17.6l-108.8-170c-3.2-5.6-9.2-8.8-15.6-8.8l-201.6-2.4c-14.4-0.4-27.2-8.4-34-21.2-6.4-12.4-5.2-27.2 3.6-38.4l130.8-164.4c3.6-4.8 5.2-11.2 3.2-17.2L151.6 166c-4-12.4 0-26.4 10-35.6 7.2-6 16-9.6 24.8-9.6 4.4 0 8.8 0.8 13.2 2.4l192.4 72c2 0.8 4.4 1.2 6.4 1.2 4 0 8-1.2 11.2-3.6L576 74.8c6.4-4.4 13.6-6.8 21.6-6.8 6.4 0 12.8 1.6 18.4 4.8 12.8 7.2 20 20.4 19.2 34.8L624 312c-0.4 6.4 2.4 12.4 7.6 16.4l163.6 125.2c11.2 8.4 16.4 22 14.4 35.6-2 12.8-11.6 23.6-24.4 27.6l-203.2 58.4c-6 1.6-10.8 6-13.2 12l-70 198c-4.8 13.2-16.8 22.4-30.4 23.2-0.8 0.4-1.6 0.4-2.8 0.4zM286 354.8c6.8 23.2 2 48.8-13.2 68l-87.2 110 134.8 1.6c25.6 0 48.8 13.2 62.8 34.8l72.8 113.6 46.8-132.4c8.4-23.2 27.2-40.8 50.4-47.6l135.6-38.8-109.2-84c-20-15.2-30.8-39.2-29.6-64.4l7.6-136.4-111.6 79.2c-12.8 9.2-28 14-43.6 14-9.2 0-18-1.6-26.4-4.8L246.8 219.2l39.2 135.6z" fill="#ffffff" p-id="26089"></path><path d="M918.4 961.6c-11.6 0-22.4-4.4-30.4-12.4l-271.2-271.6c-16.8-17.2-16.8-44 0-60.8 8.4-8 19.2-12.8 30.8-12.8s22.4 4.4 30.4 12.4l271.2 272c8 8 12.4 18.8 12.4 30.4 0 11.6-4.4 22.4-12.4 30.4-8.4 8-19.2 12.4-30.8 12.4z" fill="#ffffff" p-id="26090"></path></svg>