<?xml version="1.0" standalone="no"?><!DOCTYPE svg PUBLIC "-//W3C//DTD SVG 1.1//EN" "http://www.w3.org/Graphics/SVG/1.1/DTD/svg11.dtd"><svg t="1683301009722" class="icon" viewBox="0 0 1024 1024" version="1.1" xmlns="http://www.w3.org/2000/svg" p-id="49077" xmlns:xlink="http://www.w3.org/1999/xlink" width="200" height="200"><path d="M546 1024c-30.3 0-59.7-15.7-75.9-43.7-7.7-13.3-11.7-28.4-11.7-43.7V583.3L155.3 759.5c-19.6 11.4-44.5 4.7-55.9-14.8s-4.7-44.5 14.8-55.9l301.3-175.1-301.1-172.6c-19.6-11.2-26.3-36.2-15.1-55.8s36.2-26.4 55.8-15.1l303.4 173.9V87.4c0-48.2 39.2-87.4 87.4-87.4 15.3 0 30.5 4.1 43.7 11.7l296.8 171.4c20.2 11.7 34.7 30.5 40.7 53.1s2.9 46.1-8.7 66.4c-7.7 13.3-18.7 24.3-32 32L579 513.2l307.3 176.2c20.3 11.7 34.8 30.6 40.9 53.2 6 22.6 2.9 46.1-8.7 66.4-7.7 13.3-18.7 24.3-32 32l-296.9 171.4c-13.8 7.8-28.8 11.6-43.6 11.6z m-5.8-438.8v351.4c0 1 0.3 2 0.8 2.8 1.6 2.7 5.1 3.6 7.8 2.1l296.9-171.4c0.9-0.5 1.6-1.2 2.1-2.1 1-1.7 0.8-3.3 0.6-4.3-0.3-1-1-2.5-2.7-3.4L540.2 585.2z m5.6-503.5c-3.1 0-5.7 2.6-5.7 5.7v353.8l305.3-177.4c1-0.6 1.7-1.3 2.2-2.2 1-1.7 0.8-3.3 0.6-4.3-0.3-1-1-2.5-2.7-3.5L548.7 82.5c-0.9-0.5-1.9-0.8-2.9-0.8z" fill="#ffffff" p-id="49078"></path></svg>