<?xml version="1.0" encoding="UTF-8" standalone="no"?>
<svg
   xmlns:dc="http://purl.org/dc/elements/1.1/"
   xmlns:cc="http://creativecommons.org/ns#"
   xmlns:rdf="http://www.w3.org/1999/02/22-rdf-syntax-ns#"
   xmlns:svg="http://www.w3.org/2000/svg"
   xmlns="http://www.w3.org/2000/svg"
   xmlns:sodipodi="http://sodipodi.sourceforge.net/DTD/sodipodi-0.dtd"
   xmlns:inkscape="http://www.inkscape.org/namespaces/inkscape"
   width="16"
   height="16"
   version="1.1"
   viewBox="0 0 16 16"
   id="svg7"
   sodipodi:docname="power.svg"
   inkscape:version="1.0.2 (e86c870879, 2021-01-15)">
  <metadata
     id="metadata11">
    <rdf:RDF>
      <cc:Work
         rdf:about="">
        <dc:format>image/svg+xml</dc:format>
        <dc:type
           rdf:resource="http://purl.org/dc/dcmitype/StillImage" />
        <dc:title></dc:title>
      </cc:Work>
    </rdf:RDF>
  </metadata>
  <sodipodi:namedview
     pagecolor="#ffffff"
     bordercolor="#666666"
     borderopacity="1"
     objecttolerance="10"
     gridtolerance="10"
     guidetolerance="10"
     inkscape:pageopacity="0"
     inkscape:pageshadow="2"
     inkscape:window-width="2160"
     inkscape:window-height="1258"
     id="namedview9"
     showgrid="false"
     inkscape:zoom="45.9375"
     inkscape:cx="5.7508432"
     inkscape:cy="8.2551674"
     inkscape:window-x="0"
     inkscape:window-y="35"
     inkscape:window-maximized="1"
     inkscape:current-layer="svg7" />
  <defs
     id="defs3">
    <style
       id="current-color-scheme"
       type="text/css">.ColorScheme-Text { color:#363636; } .ColorScheme-Text { color:#363636; }</style>
  </defs>
  <path
     d="M 5.1560823,15.307825 A 0.33216035,0.33216035 0 0 1 4.848834,14.849776 L 6.8318313,10.00721 2.825313,9.1628577 A 0.33216035,0.33216035 0 0 1 2.6562435,8.6058257 L 10.275005,0.79241776 A 0.33216035,0.33216035 0 0 1 10.820746,1.1488261 L 8.7613505,6.2474873 13.155834,6.913469 a 0.33216035,0.33216035 0 0 1 0.181689,0.5666655 L 5.3879303,15.213824 a 0.33216035,0.33216035 0 0 1 -0.231848,0.094 z M 3.5534087,8.6367167 7.3589698,9.4395477 a 0.33216035,0.33216035 0 0 1 0.2388233,0.450742 L 6.0698554,13.624769 12.393857,7.4705016 8.2445094,6.8417222 A 0.33216035,0.33216035 0 0 1 7.9864207,6.3889877 L 9.5724865,2.4648453 Z"
     id="path67"
     style="fill:#ffffff;fill-opacity:1;stroke-width:0.332159" />
</svg>
