<svg width="16" height="16" enable-background="new" version="1.1" xmlns="http://www.w3.org/2000/svg">
 <path d="m4.1288 1.6066c-0.3219 0.039894-0.58908 0.17974-0.80457 0.42182s-0.32418 0.52688-0.32418 0.85144v10.241c0 0.32456 0.10871 0.60936 0.32418 0.85144 0.21549 0.24208 0.48272 0.38191 0.80457 0.42182 0.3219 0.03991 0.61401-0.03125 0.8827-0.21481l7.4286-5.1202c0.23677-0.16228 0.40168-0.38357 0.4921-0.65225 0.09047-0.27134 0.09047-0.53977 0-0.80849-0.090471-0.26869-0.25408-0.48733-0.48821-0.65225l-7.4326-5.1243c-0.2678-0.18622-0.56169-0.25561-0.8827-0.21481z" fill="#fff" stroke-width="1.9996"/>
</svg>
