<?xml version="1.0" standalone="no"?><!DOCTYPE svg PUBLIC "-//W3C//DTD SVG 1.1//EN" "http://www.w3.org/Graphics/SVG/1.1/DTD/svg11.dtd"><svg t="1683298374032" class="icon" viewBox="0 0 1024 1024" version="1.1" xmlns="http://www.w3.org/2000/svg" p-id="32263" xmlns:xlink="http://www.w3.org/1999/xlink" width="200" height="200"><path d="M512 432.079464c-10.10313 0-19.557748-3.89107-26.691377-11.024699L309.084097 244.830239a37.818473 37.818473 0 0 1-0.034132-53.348622L485.308623 15.222959c14.096597-14.233126 39.081364-14.30139 53.382754 0l176.190394 176.190394a37.545415 37.545415 0 0 1-0.102397 53.48515l-176.087997 176.12213a37.545415 37.545415 0 0 1-26.691377 11.058831z m-162.025532-213.940602L512 380.164395l161.9914-162.025533L512 56.147462l-162.025532 161.9914zM805.673411 725.821139c-10.10313 0-19.59188-3.959335-26.725509-11.161228l-176.156262-176.122129a37.272358 37.272358 0 0 1-11.058831-26.691377c0-10.10313 3.925202-19.59188 11.127096-26.691377l176.122129-176.190393c14.437919-14.30139 39.217893-14.233126 53.382754 0.068264l176.224526 176.156261c7.133629 7.133629 11.024699 16.588247 11.024699 26.657245 0 10.10313-3.89107 19.557748-11.024699 26.691377l-176.258658 176.190394a37.204093 37.204093 0 0 1-26.657245 11.092963z m-161.9914-214.008866l161.9914 161.9914 162.025532-161.9914-162.025532-161.9914-161.9914 161.9914zM218.292457 725.821139c-10.171394 0-19.694277-3.993467-26.827906-11.263624L15.376554 538.50365a37.408886 37.408886 0 0 1-11.024699-26.691377c0-10.068998 3.89107-19.523616 11.024699-26.657245l176.224526-176.224526c14.130729-14.198993 39.115496-14.267258 53.348622 0l176.190393 176.224526c7.099497 7.031232 11.092964 16.519983 11.092964 26.657245 0 10.171394-3.993467 19.660145-11.19536 26.793773l-176.087997 176.087998a37.340622 37.340622 0 0 1-26.657245 11.127095z m-162.025533-214.008866l161.991401 161.9914 161.9914-161.9914-161.9914-161.9914-161.991401 161.9914zM512 1019.460418c-10.10313 0-19.557748-3.89107-26.691377-11.024699l-176.224526-176.190394c-7.133629-7.133629-11.024699-16.588247-11.024699-26.691377s3.89107-19.557748 11.024699-26.691377l176.224526-176.190393c14.096597-14.233126 39.081364-14.30139 53.382754 0l176.190394 176.190393c7.099497 7.031232 11.092964 16.554115 11.092963 26.691377s-3.993467 19.660145-11.19536 26.793774l-176.087997 176.087997a37.647812 37.647812 0 0 1-26.691377 11.024699z m-162.025532-213.90647L512 967.545348l161.9914-161.9914L512 643.528416l-162.025532 162.025532z" fill="#ffffff" p-id="32264"></path></svg>