<?xml version="1.0" standalone="no"?><!DOCTYPE svg PUBLIC "-//W3C//DTD SVG 1.1//EN" "http://www.w3.org/Graphics/SVG/1.1/DTD/svg11.dtd"><svg t="1683298536677" class="icon" viewBox="0 0 1024 1024" version="1.1" xmlns="http://www.w3.org/2000/svg" p-id="38243" xmlns:xlink="http://www.w3.org/1999/xlink" width="200" height="200"><path d="M512 0a512 512 0 1 0 512 512A512.581818 512.581818 0 0 0 512 0z m442.181818 488.727273h-162.909091c-6.981818-152.901818-71.936-309.294545-180.596363-407.505455A443.112727 443.112727 0 0 1 954.181818 488.727273zM465.454545 93.090909v395.636364h-162.90909c6.656-145.92 64.162909-314.181818 162.90909-395.636364z m0 465.454546v372.363636c-91.857455-80.989091-149.666909-242.036364-162.90909-372.363636h162.90909z m69.818182 372.363636V558.545455h185.739637c-15.243636 132.421818-83.525818 291.141818-185.739637 372.363636z m0-442.181818V93.090909c109.917091 81.221818 178.501818 247.854545 186.181818 395.636364h-186.181818zM399.173818 84.945455C297.146182 181.527273 239.104 333.963636 232.750545 488.727273H70.981818A441.506909 441.506909 0 0 1 399.173818 84.945455zM72.308364 558.545455h160.139636c12.962909 142.429091 64.465455 277.410909 163.188364 372.363636A420.072727 420.072727 0 0 1 72.308364 558.545455z m532.945454 385.62909A615.214545 615.214545 0 0 0 791.272727 558.545455h162.909091a445.184 445.184 0 0 1-348.928 385.62909z" p-id="38244" fill="#ffffff"></path></svg>