<?xml version="1.0" encoding="UTF-8"?>
<svg width="64" height="64" version="1.1" viewBox="0 0 16.933 16.933" xmlns="http://www.w3.org/2000/svg" xmlns:cc="http://creativecommons.org/ns#" xmlns:dc="http://purl.org/dc/elements/1.1/" xmlns:rdf="http://www.w3.org/1999/02/22-rdf-syntax-ns#">
 <metadata>
  <rdf:RDF>
   <cc:Work rdf:about="">
    <dc:format>image/svg+xml</dc:format>
    <dc:type rdf:resource="http://purl.org/dc/dcmitype/StillImage"/>
    <dc:title/>
   </cc:Work>
  </rdf:RDF>
 </metadata>
 <rect x="1.0583" y="1.05" width="14.817" height="14.817" rx="3.4401" ry="3.4401" fill="#ff6464"/>
 <g transform="matrix(.068507 0 0 .068507 -9.0709 -10.885)" fill="#fff">
  <path d="m308.96 353.1c-1.35 0-2.701-0.309-3.948-0.931l-13.707-6.854-13.707 6.854c-2.487 1.242-5.409 1.242-7.896 0l-13.707-6.854-13.707 6.854c-2.487 1.242-5.409 1.242-7.896 0l-13.707-6.854-13.707 6.854c-2.739 1.368-5.986 1.223-8.589-0.386-2.602-1.609-4.186-4.449-4.186-7.509v-70.621c0-34.072 27.72-61.793 61.793-61.793s61.793 27.721 61.793 61.793v70.621c0 3.06-1.585 5.901-4.186 7.509-1.419 0.875-3.029 1.317-4.643 1.317zm-52.965-26.482c1.353 0 2.705 0.31 3.948 0.931l13.707 6.854 13.707-6.854c2.487-1.242 5.409-1.242 7.896 0l4.879 2.44v-56.337c0-24.338-19.799-44.138-44.137-44.138-24.339 0-44.139 19.8-44.139 44.138v56.338l4.879-2.44c2.487-1.242 5.409-1.242 7.896 0l13.707 6.854 13.707-6.854c1.245-0.622 2.598-0.932 3.95-0.932z"/>
  <path d="m238.34 282.48c-4.875 0-8.828-3.953-8.828-8.828v-8.828c0-4.875 3.953-8.828 8.828-8.828s8.828 3.953 8.828 8.828v8.828c-1e-3 4.875-3.953 8.828-8.828 8.828z"/>
  <path d="m273.65 282.48c-4.875 0-8.828-3.953-8.828-8.828v-8.828c0-4.875 3.953-8.828 8.828-8.828s8.828 3.953 8.828 8.828v8.828c0 4.875-3.953 8.828-8.828 8.828z"/>
 </g>
</svg>
