<?xml version="1.0" encoding="UTF-8" standalone="no"?>
<svg
   xmlns:dc="http://purl.org/dc/elements/1.1/"
   xmlns:cc="http://creativecommons.org/ns#"
   xmlns:rdf="http://www.w3.org/1999/02/22-rdf-syntax-ns#"
   xmlns:svg="http://www.w3.org/2000/svg"
   xmlns="http://www.w3.org/2000/svg"
   xmlns:sodipodi="http://sodipodi.sourceforge.net/DTD/sodipodi-0.dtd"
   xmlns:inkscape="http://www.inkscape.org/namespaces/inkscape"
   width="22"
   height="16"
   enable-background="new"
   version="1.1"
   id="svg12"
   sodipodi:docname="battery-level-80-symbolic.svg"
   inkscape:version="1.0.1 (3bc2e813f5, 2020-09-07)">
  <metadata
     id="metadata18">
    <rdf:RDF>
      <cc:Work
         rdf:about="">
        <dc:format>image/svg+xml</dc:format>
        <dc:type
           rdf:resource="http://purl.org/dc/dcmitype/StillImage" />
      </cc:Work>
    </rdf:RDF>
  </metadata>
  <defs
     id="defs16" />
  <sodipodi:namedview
     pagecolor="#ffffff"
     bordercolor="#666666"
     borderopacity="1"
     objecttolerance="10"
     gridtolerance="10"
     guidetolerance="10"
     inkscape:pageopacity="0"
     inkscape:pageshadow="2"
     inkscape:window-width="2160"
     inkscape:window-height="1240"
     id="namedview14"
     showgrid="false"
     inkscape:zoom="64.965436"
     inkscape:cx="10.793979"
     inkscape:cy="8.4239978"
     inkscape:window-x="0"
     inkscape:window-y="40"
     inkscape:window-maximized="1"
     inkscape:current-layer="svg12"
     inkscape:document-rotation="0" />
  <title
     id="title2">Paper Symbolic Icon Theme</title>
  <rect
     style="opacity:0.5;fill:#ffffff;fill-opacity:1;stroke-width:1.11904"
     id="rect843"
     width="15.355352"
     height="8.3758783"
     x="1.8294889"
     y="3.8456905" />
  <g
     transform="translate(1)"
     fill="#363636"
     fill-rule="evenodd"
     id="g10">
    <rect
       x="2"
       y="5"
       width="10"
       height="6"
       rx=".5236"
       ry=".54584"
       style="paint-order:stroke fill markers"
       id="rect4" />
    <path
       d="m2 3c-1.108 0-2 0.892-2 2v6c0 1.108 0.892 2 2 2h13c1.108 0 2-0.892 2-2v-6c0-1.108-0.892-2-2-2zm0 1h13c0.554 0 1 0.446 1 1v6c0 0.554-0.446 1-1 1h-13c-0.554 0-1-0.446-1-1v-6c0-0.554 0.446-1 1-1z"
       enable-background="new"
       style="paint-order:stroke fill markers"
       id="path6" />
    <path
       d="m18 6v4a2 2 0 0 0 2-2 2 2 0 0 0-2-2z"
       enable-background="new"
       style="paint-order:stroke fill markers"
       id="path8" />
  </g>
</svg>
