<?xml version="1.0" encoding="UTF-8" standalone="no"?>
<svg
   xmlns:dc="http://purl.org/dc/elements/1.1/"
   xmlns:cc="http://creativecommons.org/ns#"
   xmlns:rdf="http://www.w3.org/1999/02/22-rdf-syntax-ns#"
   xmlns:svg="http://www.w3.org/2000/svg"
   xmlns="http://www.w3.org/2000/svg"
   xmlns:sodipodi="http://sodipodi.sourceforge.net/DTD/sodipodi-0.dtd"
   xmlns:inkscape="http://www.inkscape.org/namespaces/inkscape"
   width="22"
   height="16"
   enable-background="new"
   version="1.1"
   id="svg16"
   sodipodi:docname="battery-level-80-charging-symbolic.svg"
   inkscape:version="1.0.1 (3bc2e813f5, 2020-09-07)">
  <metadata
     id="metadata22">
    <rdf:RDF>
      <cc:Work
         rdf:about="">
        <dc:format>image/svg+xml</dc:format>
        <dc:type
           rdf:resource="http://purl.org/dc/dcmitype/StillImage" />
      </cc:Work>
    </rdf:RDF>
  </metadata>
  <defs
     id="defs20" />
  <sodipodi:namedview
     pagecolor="#ffffff"
     bordercolor="#666666"
     borderopacity="1"
     objecttolerance="10"
     gridtolerance="10"
     guidetolerance="10"
     inkscape:pageopacity="0"
     inkscape:pageshadow="2"
     inkscape:window-width="2160"
     inkscape:window-height="1240"
     id="namedview18"
     showgrid="false"
     inkscape:zoom="45.9375"
     inkscape:cx="11"
     inkscape:cy="8"
     inkscape:window-x="0"
     inkscape:window-y="40"
     inkscape:window-maximized="1"
     inkscape:current-layer="svg16"
     inkscape:document-rotation="0" />
  <title
     id="title2">Paper Symbolic Icon Theme</title>
  <rect
     style="opacity:0.5;fill:#ffffff;fill-opacity:1;stroke-width:1.11904"
     id="rect843"
     width="15.355352"
     height="8.3758783"
     x="1.826655"
     y="3.766963" />
  <g
     transform="translate(1)"
     fill="#363636"
     id="g14">
    <path
       d="m8.834 4-3.334 5h3l-0.75 3h0.41602l3.334-5h-3l0.75-3z"
       enable-background="new"
       id="path4" />
    <g
       fill-rule="evenodd"
       id="g12">
      <path
         d="m2 3c-1.108 0-2 0.892-2 2v6c0 1.108 0.892 2 2 2h13c1.108 0 2-0.892 2-2v-6c0-1.108-0.892-2-2-2zm0 1h13c0.554 0 1 0.446 1 1v6c0 0.554-0.446 1-1 1h-13c-0.554 0-1-0.446-1-1v-6c0-0.554 0.446-1 1-1z"
         enable-background="new"
         style="paint-order:stroke fill markers"
         id="path6" />
      <path
         d="m2.5508 5c-0.30514 0-0.55078 0.24564-0.55078 0.55078v4.8984c0 0.30514 0.24564 0.55078 0.55078 0.55078h4.418l0.25-1h-1.7188c-0.79859-1.712e-4 -1.2749-0.89013-0.83203-1.5547l2.2969-3.4453h-4.4141zm7.4805 0-0.25 1h1.7188c0.1877 4.03e-5 0.35566 0.052848 0.5 0.13672v-0.58594c0-0.30514-0.24564-0.55078-0.55078-0.55078h-1.418zm1.9688 3.0527-1.9648 2.9473h1.4141c0.30514 0 0.55078-0.24564 0.55078-0.55078v-2.3965z"
         enable-background="new"
         fill="#39BB5E"
         style="paint-order:stroke fill markers"
         id="path8" />
      <path
         d="m18 6v4a2 2 0 0 0 2-2 2 2 0 0 0-2-2z"
         enable-background="new"
         style="paint-order:stroke fill markers"
         id="path10" />
    </g>
  </g>
</svg>
