<?xml version="1.0" encoding="UTF-8"?>
<svg width="16" height="16" version="1.1" xmlns="http://www.w3.org/2000/svg" xmlns:cc="http://creativecommons.org/ns#" xmlns:dc="http://purl.org/dc/elements/1.1/" xmlns:rdf="http://www.w3.org/1999/02/22-rdf-syntax-ns#">
 <metadata>
  <rdf:RDF>
   <cc:Work rdf:about="">
    <dc:format>image/svg+xml</dc:format>
    <dc:type rdf:resource="http://purl.org/dc/dcmitype/StillImage"/>
    <dc:title/>
   </cc:Work>
  </rdf:RDF>
 </metadata>
 <path d="m7.9955 1.5c-2.6779 0-4.8729 2.1244-4.9748 4.8259l-0.00325 0.19466v3.1265l-0.76671 1.9246-0.035662 0.11002-0.01783 0.11002c-0.041829 0.4017 0.15996 0.76416 0.50088 0.91234l0.10374 0.03723c0.070179 0.01976 0.14259 0.02878 0.21559 0.02878h1.6631v-0.0033h0.97744a2.4898 2.6 0 0 0 2.3423 1.7333 2.4898 2.6 0 0 0 2.3423-1.7333h1.8073v0.0033h0.82831l0.11184-0.0085 0.09564-0.0237c0.37572-0.1118 0.62245-0.44624 0.62245-0.8345l-0.0082-0.11341-0.01135-0.07448c-0.01054-0.04931-0.02502-0.09701-0.04377-0.14388l-0.76825-1.9263v-3.1163l-0.0032-0.19466-0.01135-0.19297c-0.19961-2.6178-2.3532-4.6414-4.9667-4.6414zm0 0.86666c2.2384 0 4.0608 1.7628 4.148 3.9931l0.0032 0.17775v3.1959l0.03242 0.16588 0.79913 2.0042-0.03728 0.0017h-2.451a2.4898 2.6 0 0 0 0-0.0051h-0.82988a1.6598 1.7333 0 0 1 0 0.0051l-3.3197-0.0017a1.6598 1.7333 0 0 1 0-0.0034h-0.82993a2.4898 2.6 0 0 0 0 0.0034h-2.493l0.79913-2.0042 0.030798-0.16588v-3.2043l0.00324-0.17775 0.011347-0.1845c0.1743-2.1332 1.9569-3.8001 4.1335-3.8001zm-1.4265 10.4h2.8626a1.6598 1.7333 0 0 1-1.4313 0.86666 1.6598 1.7333 0 0 1-1.4313-0.86666z" fill="#333" stroke="#333" stroke-width=".2"/>
 <path d="m14.129 3.1213a2.5 2.5 0 0 1-5 0 2.5 2.5 0 1 1 5 0z" fill="#009dff" stroke-width="1.25"/>
</svg>
