<?xml version="1.0" encoding="UTF-8"?>
<svg width="16" height="16" version="1.1" xmlns="http://www.w3.org/2000/svg" xmlns:cc="http://creativecommons.org/ns#" xmlns:dc="http://purl.org/dc/elements/1.1/" xmlns:rdf="http://www.w3.org/1999/02/22-rdf-syntax-ns#">
 <metadata>
  <rdf:RDF>
   <cc:Work rdf:about="">
    <dc:format>image/svg+xml</dc:format>
    <dc:type rdf:resource="http://purl.org/dc/dcmitype/StillImage"/>
    <dc:title/>
   </cc:Work>
  </rdf:RDF>
 </metadata>
 <path d="m7.9849 0.48297c-0.35589 0.030112-0.35422 0.33134-0.48181 1.0711a6.481 6.4632 0 0 0-0.71713 0.098456c-0.31561-0.76172-0.42597-1.0267-0.7241-0.92591-0.34277 0.11587-0.26266 0.40976-0.20949 1.1808a6.481 6.4632 0 0 0-0.66544 0.27441c-0.53232-0.64288-0.71469-0.86586-0.9713-0.68082-0.28949 0.20876-0.13396 0.4664 0.13685 1.1654a6.481 6.4632 0 0 0-0.57816 0.4462c-0.67081-0.49587-0.90148-0.66856-1.106-0.42734-0.23218 0.27374-0.016144 0.48515 0.41966 1.1068a6.481 6.4632 0 0 0-0.43502 0.5642c-0.70306-0.26141-0.96196-0.41389-1.1668-0.1215-0.18118 0.25859 0.043453 0.4383 0.69059 0.95942a6.481 6.4632 0 0 0-0.27931 0.67034c-0.73968-0.070081-1.0292-0.14832-1.1507 0.18574-0.10697 0.29396 0.15412 0.41166 0.89798 0.74016a6.481 6.4632 0 0 0-0.092165 0.70944c-0.72925 0.1412-1.0291 0.14802-1.0516 0.50275-0.019528 0.3081 0.26106 0.35 1.0432 0.45249a6.481 6.4632 0 0 0 0.10405 0.75412c-0.67008 0.29361-0.95819 0.36926-0.90217 0.71781 0.049895 0.31042 0.33562 0.28341 1.1549 0.2074a6.481 6.4632 0 0 0 0.28978 0.69757c-0.5713 0.44281-0.83008 0.58732-0.6913 0.90984 0.12478 0.28993 0.39586 0.19276 1.1787-0.08379a6.481 6.4632 0 0 0 0.42315 0.54675c-0.43087 0.63269-0.64578 0.84693-0.40919 1.1187 0.20638 0.23698 0.4349 0.06347 1.0893-0.43362a6.481 6.4632 0 0 0 0.57957 0.44689c-0.26226 0.7301-0.42017 0.99153-0.12149 1.1969 0.26158 0.17983 0.43905-0.04824 0.96081-0.70804l-0.12779-0.07612a6.481 6.4632 0 0 0 0.76111 0.32539c-0.05055 0.74967-0.12309 1.0424 0.21576 1.1556 0.29337 0.09806 0.40572-0.1628 0.70666-0.89588a6.481 6.4632 0 0 0 0.73389 0.09777c0.13866 0.82939 0.18344 1.115 0.49926 1.0837 0.3546-0.03515 0.34964-0.33612 0.46574-1.0739a6.481 6.4632 0 0 0 0.73947-0.09706c0.30515 0.74347 0.41638 1.0064 0.71154 0.90775 0.33898-0.1133 0.26632-0.40541 0.21576-1.1556a6.481 6.4632 0 0 0 0.67311-0.27373c0.50671 0.64077 0.68506 0.86464 0.94336 0.68711 0.29324-0.20158 0.1447-0.46184-0.10892-1.162a6.481 6.4632 0 0 0 0.59841-0.45736c0.62686 0.47601 0.85603 0.64247 1.0586 0.4099 0.23069-0.26489 0.02807-0.48086-0.38126-1.0774a6.481 6.4632 0 0 0 0.43711-0.55861c0.76538 0.27038 1.0356 0.36392 1.1592 0.07681 0.13799-0.32061-0.11801-0.46621-0.68221-0.90286a6.481 6.4632 0 0 0 0.29606-0.70316c0.80505 0.07467 1.0901 0.09929 1.1396-0.20878 0.05548-0.34519-0.22924-0.42356-0.88541-0.71014a6.481 6.4632 0 0 0 0.097061-0.76321c0.77332-0.10137 1.0522-0.1445 1.0327-0.45108-0.022238-0.35084-0.31818-0.36181-1.0299-0.49856a6.481 6.4632 0 0 0-0.09916-0.72061c0.73105-0.3229 0.9902-0.44143 0.88402-0.73318-0.12058-0.33133-0.40914-0.25674-1.1354-0.18714a6.481 6.4632 0 0 0-0.28072-0.68082c0.63434-0.51084 0.85624-0.69119 0.67663-0.94756-0.20399-0.29116-0.4635-0.14066-1.1598 0.1187a6.481 6.4632 0 0 0-0.44689-0.57748c0.47039-0.66474 0.63388-0.8995 0.39103-1.097-0.27286-0.22185-0.48158-0.011981-1.0656 0.41827a6.481 6.4632 0 0 0-0.59143-0.45249c0.3113-0.7599 0.41965-1.0258 0.13756-1.164-0.3247-0.15911-0.47579 0.10601-0.98037 0.68988a6.481 6.4632 0 0 0-0.66964-0.27582c0.06975-0.83142 0.095574-1.1179-0.21716-1.1654-0.35072-0.053203-0.42169 0.23711-0.71294 0.91683a6.481 6.4632 0 0 0-0.73389-0.091472c-0.12408-0.81414-0.167-1.0983-0.48042-1.0719zm-0.25906 1.9858c0.71741-0.012009 1.5695 0.11644 1.8462 0.23671 1.2045 0.36718 2.3187 1.0422 3.2672 2.6129 0.17666 0.29252 0.30316 0.57662 0.36031 0.83582 0.05673 0.27256 0.03572 0.58929-0.14036 0.83932-0.15087 0.19882-0.33769 0.38597-0.59842 0.40987-0.81139 0.076019-1.9115 0.03313-2.7798 0.023743-0.1461-0.0015656-0.28548-0.060716-0.32749-0.10684-0.25723-0.16211-0.43026-0.51437-0.71713-0.61379-0.45797-0.21217-0.64385-0.034208-0.90215-0.35192-0.47583-0.76334-0.93625-1.5478-1.3588-2.3266-0.30618-0.53299-0.10396-1.0664 0.35751-1.354 0.18056-0.14006 0.56249-0.1981 0.99295-0.2053zm-3.1974 1.6437c0.037359-0.00118 0.075095 3.534e-4 0.11313 0.00419 0.24726 0.033878 0.502 0.10437 0.65079 0.3198 0.46444 0.66965 0.9668 1.6494 1.3846 2.4104 0.070322 0.12807 0.087309 0.27872 0.067734 0.33796-0.015009 0.30368-0.23711 0.62787-0.18295 0.9266 0.039891 0.50315 0.28622 0.57704 0.13617 0.95803-0.43159 0.7892-0.8897 1.5755-1.361 2.326-0.31414 0.52836-0.87767 0.61431-1.3546 0.35332-0.56174-0.23623-1.3161-2.009-1.3659-2.4892-0.27121-1.2297-0.22987-2.5316 0.67314-4.129 0.16818-0.29748 0.35384-0.5478 0.55164-0.7248 0.18343-0.1603 0.42556-0.28507 0.68711-0.29328zm3.4683 3.3873a0.49961 0.49961 0 0 1 0.00282 0 0.49961 0.49961 0 0 1 0.49996 0.49997 0.49961 0.49961 0 0 1-0.49997 0.49926 0.49961 0.49961 0 0 1-0.49926-0.49926 0.49961 0.49961 0 0 1 0.49647-0.49997zm2.9509 1.0872c0.45047 0.00233 0.89929 0.011499 1.3421 0.027932 0.61463 0.00787 0.97069 0.45286 0.98316 0.99644 0.07628 0.6046-1.0816 2.1447-1.4726 2.428-0.92935 0.84973-2.0776 1.4643-3.9124 1.481-0.34171 0.0031-0.65068-0.03242-0.90286-0.11521-0.26349-0.089953-0.52524-0.2693-0.65079-0.54814-0.094304-0.23107-0.16106-0.48753-0.048872-0.72411 0.34772-0.73705 0.94571-1.6618 1.3959-2.4042 0.07575-0.12494 0.19728-0.21498 0.25836-0.22764 0.27049-0.13885 0.66214-0.10818 0.8938-0.30444 0.4158-0.28611 0.35755-0.5365 0.76251-0.59701 0.44961-0.010415 0.90137-0.014902 1.3518-0.012567z" fill="#fff" stroke-width=".34365"/>
</svg>
