<?xml version="1.0" standalone="no"?><!DOCTYPE svg PUBLIC "-//W3C//DTD SVG 1.1//EN" "http://www.w3.org/Graphics/SVG/1.1/DTD/svg11.dtd"><svg t="1683298906188" class="icon" viewBox="0 0 1024 1024" version="1.1" xmlns="http://www.w3.org/2000/svg" p-id="43631" xmlns:xlink="http://www.w3.org/1999/xlink" width="200" height="200"><path d="M895.073524 731.672381a407.747048 407.747048 0 0 0-350.354286-281.404952v-69.241905a188.806095 188.806095 0 0 0 153.6-189.391238A186.855619 186.855619 0 0 0 516.632381 0a186.855619 186.855619 0 0 0-180.955429 191.634286 188.806095 188.806095 0 0 0 152.771048 189.391238v69.241905a407.747048 407.747048 0 0 0-350.061714 281.404952 140.726857 140.726857 0 1 0 4.778666 281.404952 137.313524 137.313524 0 0 0 133.12-140.678095 140.726857 140.726857 0 0 0-82.748952-130.291809 351.183238 351.183238 0 0 1 294.912-235.52v227.913142a139.02019 139.02019 0 0 0-104.935619 137.898667 137.313524 137.313524 0 0 0 133.12 140.678095 137.313524 137.313524 0 0 0 133.12-140.678095 140.726857 140.726857 0 0 0-104.984381-137.898667v-227.961904a350.598095 350.598095 0 0 1 295.497143 234.154666 140.726857 140.726857 0 0 0-83.334095 131.657143 133.412571 133.412571 0 1 0 138.191238-140.678095zM219.672381 872.399238a80.213333 80.213333 0 0 1-77.970286 82.407619 82.456381 82.456381 0 1 1 0-164.864c3.120762-0.292571 6.192762-0.292571 9.264762 0h3.705905c39.448381 7.314286 67.632762 42.325333 66.413714 82.407619h-1.462857zM388.534857 191.926857A129.706667 129.706667 0 0 1 516.583619 58.514286a129.706667 129.706667 0 0 1 126.049524 133.12 129.999238 129.999238 0 0 1-126.049524 133.412571 129.999238 129.999238 0 0 1-125.805714-133.412571l-2.243048 0.292571z m205.970286 680.472381a77.970286 77.970286 0 1 1-77.921524-82.748952 80.213333 80.213333 0 0 1 77.921524 82.748952z m295.497143 82.407619a80.213333 80.213333 0 0 1-77.970286-82.407619 81.334857 81.334857 0 0 1 65.340952-81.334857h3.31581c3.120762-0.292571 6.241524-0.292571 9.264762 0a82.456381 82.456381 0 1 1 0 164.912762v-1.121524z" fill="#ffffff" p-id="43632"></path></svg>