<?xml version="1.0" encoding="UTF-8"?>
<svg version="1.1" viewBox="0 0 24 24" xmlns="http://www.w3.org/2000/svg" xmlns:cc="http://creativecommons.org/ns#" xmlns:dc="http://purl.org/dc/elements/1.1/" xmlns:rdf="http://www.w3.org/1999/02/22-rdf-syntax-ns#">
 <metadata>
  <rdf:RDF>
   <cc:Work rdf:about="">
    <dc:format>image/svg+xml</dc:format>
    <dc:type rdf:resource="http://purl.org/dc/dcmitype/StillImage"/>
    <dc:title/>
   </cc:Work>
  </rdf:RDF>
 </metadata>
 <defs>
  <style id="current-color-scheme" type="text/css">.ColorScheme-Text {
        color:#FFFFFF;
      }</style>
 </defs>
 <path class="ColorScheme-Text" d="m12 1a11 11 0 0 0-10.643 8.25h1.4233a9.625 9.625 0 0 1 9.2195-6.875 9.625 9.625 0 0 1 8.6743 5.5h-4.9629v1.375h6.875v-6.875h-1.375v3.6523a11 11 0 0 0-9.2114-5.0273zm-10.586 13.75v6.875h1.375v-3.6523a11 11 0 0 0 9.2114 5.0273 11 11 0 0 0 10.643-8.25h-1.4233a9.625 9.625 0 0 1-9.2195 6.875 9.625 9.625 0 0 1-8.6743-5.5h4.9629v-1.375h-5.5027z" fill="currentColor"/>
</svg>
