<?xml version="1.0" encoding="UTF-8" standalone="no"?>
<svg
   xmlns:dc="http://purl.org/dc/elements/1.1/"
   xmlns:cc="http://creativecommons.org/ns#"
   xmlns:rdf="http://www.w3.org/1999/02/22-rdf-syntax-ns#"
   xmlns:svg="http://www.w3.org/2000/svg"
   xmlns="http://www.w3.org/2000/svg"
   xmlns:sodipodi="http://sodipodi.sourceforge.net/DTD/sodipodi-0.dtd"
   xmlns:inkscape="http://www.inkscape.org/namespaces/inkscape"
   version="1.1"
   viewBox="0 0 22 22"
   id="svg7"
   sodipodi:docname="locked.svg"
   inkscape:version="1.0.2 (e86c870879, 2021-01-15)"
   width="22"
   height="22">
  <metadata
     id="metadata11">
    <rdf:RDF>
      <cc:Work
         rdf:about="">
        <dc:format>image/svg+xml</dc:format>
        <dc:type
           rdf:resource="http://purl.org/dc/dcmitype/StillImage" />
        <dc:title />
      </cc:Work>
    </rdf:RDF>
  </metadata>
  <sodipodi:namedview
     pagecolor="#ffffff"
     bordercolor="#666666"
     borderopacity="1"
     objecttolerance="10"
     gridtolerance="10"
     guidetolerance="10"
     inkscape:pageopacity="0"
     inkscape:pageshadow="2"
     inkscape:window-width="2160"
     inkscape:window-height="1221"
     id="namedview9"
     showgrid="false"
     inkscape:zoom="33.409091"
     inkscape:cx="14.598081"
     inkscape:cy="11"
     inkscape:window-x="0"
     inkscape:window-y="42"
     inkscape:window-maximized="1"
     inkscape:current-layer="svg7"
     inkscape:document-rotation="0" />
  <defs
     id="defs3">
    <style
       id="current-color-scheme"
       type="text/css">.ColorScheme-Text {
        color:#363636;
      }</style>
  </defs>
  <path
     d="M 16.0625,20 H 5.9375 C 5.0075073,20 4.25,19.243317 4.25,18.3125 v -7.875 C 4.25,9.5066834 5.0075073,8.75 5.9375,8.75 h 10.125 c 0.929992,0 1.6875,0.7566834 1.6875,1.6875 v 7.875 C 17.75,19.243317 16.992492,20 16.0625,20 Z M 5.9375,9.875 c -0.3098145,0 -0.5625,0.251999 -0.5625,0.5625 v 7.875 c 0,0.310501 0.2526855,0.5625 0.5625,0.5625 h 10.125 c 0.309814,0 0.5625,-0.251999 0.5625,-0.5625 v -7.875 c 0,-0.310501 -0.252686,-0.5625 -0.5625,-0.5625 z m 0,0"
     id="path2-3"
     style="fill:#ffffff;fill-opacity:1;stroke-width:0.0351562" />
  <path
     d="M 14.9375,9.875 C 14.626999,9.875 14.375,9.6230011 14.375,9.3125 V 6.5 C 14.375,4.6391907 12.860809,3.125 11,3.125 9.1391906,3.125 7.625,4.6391907 7.625,6.5 V 9.3125 C 7.625,9.6230011 7.3730011,9.875 7.0625,9.875 6.7519989,9.875 6.5,9.6230011 6.5,9.3125 V 6.5 C 6.5,4.0181885 8.5181885,2 11,2 c 2.481812,0 4.5,2.0181885 4.5,4.5 v 2.8125 c 0,0.3105011 -0.251999,0.5625 -0.5625,0.5625 z m 0,0"
     id="path4"
     style="fill:#ffffff;fill-opacity:1;stroke-width:0.0351562" />
</svg>
