<svg width="24" height="24" version="1.1" viewBox="0 0 24 24" xml:space="preserve" xmlns="http://www.w3.org/2000/svg">
<g transform="matrix(.039062 0 0 .039062 1.9999 2.0002)">
	
		<path d="m284.29 256 221.86-221.86c7.811-7.811 7.811-20.475 0-28.285s-20.475-7.811-28.285 0l-221.86 221.86-221.86-221.86c-7.811-7.811-20.475-7.811-28.285 0s-7.811 20.475 0 28.285l221.86 221.86-221.86 221.86c-7.811 7.811-7.811 20.475 0 28.285 3.905 3.905 9.024 5.857 14.143 5.857s10.237-1.952 14.143-5.857l221.86-221.86 221.86 221.86c3.905 3.905 9.024 5.857 14.143 5.857s10.237-1.952 14.143-5.857c7.811-7.811 7.811-20.475 0-28.285z"/>
	
</g>















</svg>
