<svg width="30" height="30" version="1.1" viewBox="0 0 7.9375 7.9375" xmlns="http://www.w3.org/2000/svg" xmlns:xlink="http://www.w3.org/1999/xlink">
 <defs>
  <linearGradient id="linearGradient4160-4" x1="2" x2="46.54" y1="1028.4" y2="1031.1" gradientTransform="matrix(.072159 0 0 .072159 -4.9593 -67.655)" gradientUnits="userSpaceOnUse">
   <stop stop-color="#f00" offset="0"/>
   <stop stop-color="#ff2a2a" offset="1"/>
  </linearGradient>
 </defs>
 <g transform="matrix(2.3333 0 0 2.3333 -11.768 -2.5632)" stroke-width=".26458">
  <ellipse transform="rotate(266.31)" cx="-3.2275" cy="6.5505" rx="1.5875" ry="1.5875" fill="url(#linearGradient4160-4)"/>
  <path d="m6.744 1.9337c-0.079702 0-0.14366 0.063976-0.14366 0.14367v1.0113c0 0.079719 0.063958 0.14364 0.14366 0.14364h0.00103c0.079702 0 0.14366-0.063923 0.14366-0.14364v-1.0113c0-0.079692-0.063959-0.14367-0.14366-0.14367zm5.292e-4 1.5875c-0.079952 0-0.14418 0.064241-0.14418 0.1442 0 0.079931 0.064225 0.14417 0.14418 0.14417 0.079952 0 0.14418-0.064241 0.14418-0.14417 0-0.079957-0.064225-0.1442-0.14418-0.1442z" fill="#fff"/>
 </g>
</svg>
