<svg width="30" height="30" version="1.1" viewBox="0 0 7.9375 7.9375" xmlns="http://www.w3.org/2000/svg" xmlns:xlink="http://www.w3.org/1999/xlink">
 <defs>
  <linearGradient id="linearGradient4181" x1="399.99" x2="399.99" y1="545.14" y2="518.14" gradientTransform="matrix(.42857 0 0 .42857 -141.26 -211.71)" gradientUnits="userSpaceOnUse">
   <stop stop-color="#0bac83" offset="0"/>
   <stop stop-color="#10da96" offset="1"/>
  </linearGradient>
 </defs>
 <g transform="matrix(.61736 0 0 .61736 -14.806 -6.0356)">
  <circle cx="30.412" cy="16.205" r="6" fill="url(#linearGradient4181)"/>
  <path d="m33.88 14.579-0.64088-0.64088c-0.08792-0.08798-0.19481-0.13194-0.32044-0.13194-0.12569 0-0.23258 0.04396-0.3205 0.13194l-3.0914 3.0961-1.3855-1.3902c-0.08798-0.08798-0.19481-0.13194-0.32044-0.13194-0.12569 0-0.23252 0.04396-0.3205 0.13194l-0.64088 0.64088c-0.08798 0.08798-0.13194 0.19481-0.13194 0.3205 0 0.12563 0.04396 0.23252 0.13194 0.32044l1.7059 1.7059 0.64094 0.64088c0.08792 0.08798 0.19475 0.13194 0.32044 0.13194 0.12563 0 0.23246-0.04402 0.32044-0.13194l0.64094-0.64088 3.4118-3.4118c0.08792-0.08798 0.13194-0.19481 0.13194-0.3205 5.8e-5 -0.12563-0.04402-0.23246-0.13194-0.32044z" fill="#fff" fill-opacity=".85081"/>
 </g>
</svg>
