<svg width="64" height="64" version="1.1" xmlns="http://www.w3.org/2000/svg" xmlns:xlink="http://www.w3.org/1999/xlink">
 <defs>
  <linearGradient id="linearGradient981" x1="12.022" x2="10.339" y1="15.435" y2="9.1891" gradientTransform="matrix(3.7796 0 0 3.7796 -1.636 4.2887)" gradientUnits="userSpaceOnUse">
   <stop stop-color="#ff8c14" offset="0"/>
   <stop stop-color="#ffb932" offset="1"/>
  </linearGradient>
  <linearGradient id="linearGradient991" x1="-177.09" x2="-184.76" y1="-1.3372" y2="-7.9214" gradientTransform="matrix(3.7796 0 0 3.7796 701.17 68.192)" gradientUnits="userSpaceOnUse">
   <stop stop-color="#ff820f" offset="0"/>
   <stop stop-color="#ff8c0f" offset="1"/>
  </linearGradient>
  <linearGradient id="linearGradient1026" x1="35.795" x2="35.787" y1="64" y2=".32427" gradientTransform="matrix(3.7796 0 0 3.7796 639.19 61.31)" gradientUnits="userSpaceOnUse">
   <stop stop-color="#78b4dc" offset="0"/>
   <stop stop-color="#0096f0" offset="1"/>
  </linearGradient>
 </defs>
 <g transform="rotate(-90 32 32.167)">
  <rect width="64" height="64" fill="url(#linearGradient1026)" opacity=".95"/>
  <g transform="matrix(1.1636 0 0 1.1636 -3.3325 -9.4434)" stroke-width="3.7796">
   <path d="m2.864 38.253v20.564c0 2.5416 2.0443 4.5881 4.5858 4.5881h30.357c-2.4139-3.9191-5.9117-8.2376-10.984-12.758-9.2283-8.2233-17.646-11.349-23.959-12.394z" fill="url(#linearGradient991)"/>
   <path d="m43.477 40.285c-11.419-0.29041-19.05 7.6004-24.019 11.473-4.3016 3.3518-11.814 3.8287-16.592 3.7578v3.3027c0 2.5416 2.0443 4.5881 4.5858 4.5881h45.828c2.6941 0 4.5881-2.0463 4.5881-4.5881v-14.162c-0.53228-0.30857-1.0873-0.61033-1.666-0.90234-4.6894-2.3663-8.9165-3.3719-12.723-3.4688z" fill="url(#linearGradient981)"/>
  </g>
  <circle cx="50.715" cy="13.476" r="6.7594" fill="#ffffe1" stroke-width="3.7796"/>
 </g>
</svg>
