<?xml version="1.0" standalone="no"?><!DOCTYPE svg PUBLIC "-//W3C//DTD SVG 1.1//EN" "http://www.w3.org/Graphics/SVG/1.1/DTD/svg11.dtd"><svg t="1683815239788" class="icon" viewBox="0 0 1024 1024" version="1.1" xmlns="http://www.w3.org/2000/svg" p-id="5189" xmlns:xlink="http://www.w3.org/1999/xlink" width="200" height="200"><path d="M853.333333 0a128 128 0 0 1 128 128v768a128 128 0 0 1-128 128H170.666667a128 128 0 0 1-128-128V128a128 128 0 0 1 128-128z m-213.333333 725.333333H298.666667a42.666667 42.666667 0 0 0 0 85.333334h341.333333a42.666667 42.666667 0 0 0 0-85.333334z m0-170.666666H298.666667a42.666667 42.666667 0 0 0 0 85.333333h341.333333a42.666667 42.666667 0 0 0 0-85.333333zM512 128H298.666667a42.666667 42.666667 0 0 0-42.666667 42.666667v220.501333a42.666667 42.666667 0 0 0 65.706667 35.925333l60.586666-38.912a42.666667 42.666667 0 0 1 46.08 0l60.586667 38.912A42.666667 42.666667 0 0 0 554.666667 391.168V170.666667a42.666667 42.666667 0 0 0-42.666667-42.666667z" fill="#008df0" p-id="5190"></path></svg>