<svg width="64" height="64" version="1.1" xmlns="http://www.w3.org/2000/svg" xmlns:xlink="http://www.w3.org/1999/xlink">
 <defs>
  <linearGradient id="linearGradient914" x2="64" y1="32" y2="32" gradientUnits="userSpaceOnUse">
   <stop stop-color="#fd3a84" offset="0"/>
   <stop stop-color="#ffa68d" offset="1"/>
  </linearGradient>
 </defs>
 <rect width="64" height="64" fill="url(#linearGradient914)" opacity=".95"/>
 <g transform="matrix(.099338 0 0 .099338 6.5695 6.5695)" fill="#fff" fill-opacity=".8">
  <g fill="#fff" fill-opacity=".8">
   <path d="m161.69 350.31c-3.516-3.516-9.206-3.516-12.722 0l-38.167 38.167c-3.516 3.516-3.516 9.207 0 12.723s9.206 3.516 12.722 0l38.167-38.167c3.516-3.516 3.516-9.207 0-12.723zm12.722 25.445-12.722 12.722c-3.516 3.516-3.516 9.207 0 12.723s9.206 3.516 12.722 0l12.722-12.723c3.516-3.516 3.516-9.206 0-12.722s-9.206-3.516-12.722 0zm-50.889-50.889-12.722 12.722c-3.516 3.516-3.516 9.207 0 12.723s9.206 3.516 12.722 0l12.722-12.723c3.516-3.516 3.516-9.206 0-12.722s-9.206-3.516-12.722 0zm282.44-211.2c-0.572-3.951-3.677-7.057-7.628-7.628-2.128-0.305-31.099-4.1-68.809 4.99l71.448 71.448c9.089-37.711 5.294-66.682 4.989-68.81zm-174.3 52.169c-24.833 24.833-59.413 68.728-71.905 98.281-1.423 3.373-0.659 7.268 1.932 9.858l12.722 12.722 38.167-38.167c14.027-14.027 36.856-14.033 50.889 0s14.027 36.862 0 50.889l-38.167 38.167 12.722 12.723c2.59 2.59 6.485 3.354 9.858 1.932 29.268-12.371 72.945-46.568 98.281-71.904 25.368-25.369 40.221-52.925 48.977-78.246l-85.233-85.233c-25.318 8.757-52.874 23.61-78.243 48.978zm108.14 6.361c14.033 14.033 14.027 36.862 0 50.889s-36.856 14.033-50.889 0-14.027-36.862 0-50.889 36.856-14.033 50.889 0zm-12.722 38.167c7.02-7.02 7.013-18.431 0-25.445-7.013-7.013-18.425-7.02-25.445 0s-7.013 18.431 0 25.445c7.014 7.013 18.425 7.02 25.445 0zm-81.295 160.39c-0.324 6.447-2.848 12.805-7.762 17.718-3.516 3.516-3.516 9.207 0 12.723 0.776 0.776 19.444 18.723 50.889-12.723 22.013-22.013 28.484-43.989 29.747-60.244-24.209 18.932-46.73 33.377-63.771 40.583-2.959 1.247-6.029 1.78-9.103 1.943zm-122.26-96.783c4.913-4.913 11.27-7.436 17.716-7.761 0.162-3.068 0.695-6.134 1.939-9.086 7.217-17.071 21.665-39.6 40.576-63.787-16.255 1.265-38.224 7.739-60.231 29.745-31.445 31.445-13.499 50.113-12.722 50.889 3.515 3.517 9.206 3.517 12.722 0zm127.22-12.722c-7.013-7.014-18.425-7.02-25.444 0l-50.889 50.889c-7.02 7.02-7.013 18.431 0 25.444 7.013 7.014 18.425 7.02 25.445 0l50.889-50.889c7.018-7.019 7.012-18.43-1e-3 -25.444z" fill="#fff" fill-opacity="1"/>
  </g>
 </g>
</svg>
