<svg width="64" height="64" version="1.1" xmlns="http://www.w3.org/2000/svg" xmlns:xlink="http://www.w3.org/1999/xlink">
 <defs>
  <linearGradient id="linearGradient863" x1="31.71" x2="32.644" y1="61.741" y2="4.8507" gradientTransform="matrix(3.7796 0 0 3.7796 -58.247 -6.0472)" gradientUnits="userSpaceOnUse">
   <stop stop-color="#ff670a" offset="0"/>
   <stop stop-color="#ffc53f" offset="1"/>
  </linearGradient>
 </defs>
 <rect width="64" height="64" fill="url(#linearGradient863)"/>
 <path d="m46.884 30.126c-0.0603-0.48248-0.49808-0.82808-0.98493-0.76599-0.48338 0.0603-0.82629 0.50146-0.76599 0.98493 0.06805 0.54288 0.10252 1.0943 0.10252 1.6553 0 7.2983-5.9369 13.235-13.235 13.235-4.1746 0-8.0934-1.9986-10.577-5.2941h1.7531c0.48775 0 0.88232-0.39467 0.88232-0.88242 0-0.48765-0.39467-0.88232-0.88232-0.88232h-3.5295c-0.48765 0-0.88232 0.39467-0.88232 0.88232v3.5295c0 0.48775 0.39467 0.88232 0.88232 0.88232 0.48775 0 0.88232-0.39467 0.88232-0.88232v-0.96814c2.8245 3.3553 7.0124 5.3798 11.471 5.3798 8.2712 0 15-6.7288 15-15 0-0.63507-0.03964-1.2606-0.11632-1.8741zm-28.016 3.5294c-0.06805-0.54288-0.10252-1.0943-0.10252-1.6553 0-7.2983 5.9369-13.235 13.235-13.235 4.1746 0 8.0934 1.9986 10.577 5.2941h-1.7531c-0.48775 0-0.88232 0.39467-0.88232 0.88242 0 0.48765 0.39467 0.88232 0.88232 0.88232h3.5295c0.48765 0 0.88232-0.39467 0.88232-0.88232v-3.5295c0-0.48775-0.39467-0.88232-0.88232-0.88232-0.48775 0-0.88232 0.39467-0.88232 0.88232v0.96805c-2.8245-3.3554-7.0124-5.3798-11.471-5.3798-8.2712 0-15 6.7287-15 15 0 0.63507 0.03965 1.2606 0.11632 1.8741 0.05603 0.44633 0.43599 0.77295 0.87457 0.77295 0.03616 0 0.07321-0.0026 0.11027-0.0069 0.48348-0.0603 0.82639-0.50156 0.76609-0.98494zm10.968 8.8373c0.36954 0.18725 0.81526 0.09238 1.0779-0.22142l8.8235-10.588c0.19391-0.23354 0.2551-0.55053 0.16023-0.83921-0.09397-0.28868-0.33-0.50841-0.62473-0.58162l-6.2024-1.551 1.5502-6.2031c0.09993-0.39894-0.0896-0.81427-0.45586-1.0004-0.36795-0.18526-0.81338-0.09387-1.0779 0.22142l-8.8235 10.588c-0.19391 0.23354-0.2551 0.55063-0.16023 0.8393 0.09397 0.28868 0.33 0.50841 0.62474 0.58162l6.2024 1.5511-1.5502 6.2031c-0.09983 0.39884 0.0897 0.81417 0.45586 1.0002z" fill="#fff" stroke-width=".099338"/>
</svg>
